<svg width="32" height="35" viewBox="0 0 32 35" fill="none" xmlns="http://www.w3.org/2000/svg">
<path d="M16.25 33.5C17.2165 33.5 18 32.7165 18 31.75C18 30.7835 17.2165 30 16.25 30C15.2835 30 14.5 30.7835 14.5 31.75C14.5 32.7165 15.2835 33.5 16.25 33.5Z" fill="#425A8B"/>
<path d="M8.25 33.5C9.2165 33.5 10 32.7165 10 31.75C10 30.7835 9.2165 30 8.25 30C7.2835 30 6.5 30.7835 6.5 31.75C6.5 32.7165 7.2835 33.5 8.25 33.5Z" fill="#425A8B"/>
<path opacity="0.4" d="M4.84 14.94L4.64 17.39C4.6 17.86 4.97 18.25 5.44 18.25H20.75C21.17 18.25 21.52 17.93 21.55 17.51C21.68 15.74 20.33 14.3 18.56 14.3H6.28999C6.18999 13.86 5.98999 13.44 5.67999 13.09C5.18999 12.56 4.49 12.25 3.77 12.25H2C1.59 12.25 1.25 12.59 1.25 13C1.25 13.41 1.59 13.75 2 13.75H3.74001C4.05001 13.75 4.34 13.88 4.55 14.1C4.76 14.33 4.86 14.63 4.84 14.94Z" fill="#425A8B"/>
<path d="M20.5101 19.75H5.17006C4.75006 19.75 4.41005 20.07 4.37005 20.48L4.01005 24.83C3.87005 26.53 5.21006 28 6.92006 28H18.0401C19.5401 28 20.8601 26.77 20.9701 25.27L21.3001 20.6C21.3401 20.14 20.9801 19.75 20.5101 19.75Z" fill="#425A8B"/>
<rect x="12" width="20" height="20" rx="10" fill="#FD9636"/>
<path d="M19.22 14.6541V13.7901C19.788 13.3581 20.324 12.9221 20.828 12.4821C21.34 12.0421 21.796 11.6061 22.196 11.1741C22.596 10.7341 22.908 10.3061 23.132 9.89005C23.364 9.46605 23.48 9.06205 23.48 8.67805C23.48 8.40605 23.428 8.15405 23.324 7.92205C23.228 7.69005 23.072 7.50205 22.856 7.35805C22.648 7.20605 22.364 7.13005 22.004 7.13005C21.652 7.13005 21.36 7.20605 21.128 7.35805C20.896 7.51005 20.72 7.71405 20.6 7.97005C20.488 8.21805 20.432 8.49405 20.432 8.79805H19.268C19.276 8.22205 19.4 7.73405 19.64 7.33405C19.88 6.93405 20.208 6.63005 20.624 6.42205C21.04 6.21405 21.508 6.11005 22.028 6.11005C22.564 6.11005 23.028 6.21005 23.42 6.41005C23.812 6.60205 24.12 6.88605 24.344 7.26205C24.568 7.63805 24.68 8.09005 24.68 8.61805C24.68 9.00205 24.6 9.38605 24.44 9.77005C24.288 10.1461 24.08 10.5141 23.816 10.8741C23.552 11.2341 23.256 11.5821 22.928 11.9181C22.608 12.2461 22.276 12.5581 21.932 12.8541C21.588 13.1501 21.26 13.4181 20.948 13.6581H24.932V14.6541H19.22Z" fill="white"/>
</svg>
