<svg width="111" height="37" viewBox="0 0 111 37" fill="none" xmlns="http://www.w3.org/2000/svg">
<g clip-path="url(#clip0_4031_22910)">
<path d="M9.7286 4.8088L8.84961 5.28564L11.2522 9.71439L12.1311 9.23755L9.7286 4.8088Z" fill="#FD9636"/>
<path d="M10.5871 2.19754C10.8228 2.63216 10.9244 3.12694 10.879 3.6193C10.8336 4.11166 10.6432 4.5795 10.3319 4.96365C10.0206 5.3478 9.60234 5.63101 9.13007 5.77746C8.6578 5.92392 8.15272 5.92704 7.67867 5.78644C7.20463 5.64583 6.78293 5.36782 6.4669 4.98755C6.15086 4.60728 5.95469 4.14183 5.90318 3.65007C5.85167 3.15831 5.94715 2.66231 6.17753 2.22481C6.40791 1.78731 6.76286 1.42795 7.19747 1.19217C7.78107 0.879944 8.46423 0.810391 9.09878 0.998601C9.73332 1.18681 10.2681 1.61761 10.5871 2.19754Z" fill="#36BEF9"/>
<path d="M26.1601 4.8088L27.0391 5.28564L24.6365 9.71439L23.7575 9.23755L26.1601 4.8088Z" fill="#FD9636"/>
<path d="M25.3016 2.19754C25.0658 2.63216 24.9642 3.12694 25.0097 3.6193C25.0551 4.11166 25.2455 4.5795 25.5568 4.96365C25.8681 5.3478 26.2863 5.63101 26.7586 5.77746C27.2309 5.92392 27.736 5.92704 28.21 5.78644C28.684 5.64583 29.1057 5.36782 29.4218 4.98755C29.7378 4.60728 29.934 4.14183 29.9855 3.65007C30.037 3.15831 29.9415 2.66231 29.7111 2.22481C29.4808 1.78731 29.1258 1.42795 28.6912 1.19217C28.1076 0.879944 27.4244 0.810391 26.7899 0.998601C26.1553 1.18681 25.6206 1.61761 25.3016 2.19754Z" fill="#36BEF9"/>
<path d="M24.32 31.04H12.52C12.1169 31.04 11.7303 30.8799 11.4452 30.5948C11.1601 30.3097 11 29.9231 11 29.52C11 29.1169 11.1601 28.7303 11.4452 28.4452C11.7303 28.1601 12.1169 28 12.52 28H24.32C24.7231 28 25.1097 28.1601 25.3948 28.4452C25.6799 28.7303 25.84 29.1169 25.84 29.52C25.84 29.9231 25.6799 30.3097 25.3948 30.5948C25.1097 30.8799 24.7231 31.04 24.32 31.04Z" fill="#FD9636"/>
<path d="M3.04 23.7599C4.71895 23.7599 6.08 22.3989 6.08 20.7199C6.08 19.041 4.71895 17.6799 3.04 17.6799C1.36105 17.6799 0 19.041 0 20.7199C0 22.3989 1.36105 23.7599 3.04 23.7599Z" fill="#36BEF9"/>
<path d="M33.7802 23.56C35.4592 23.56 36.8202 22.1989 36.8202 20.52C36.8202 18.841 35.4592 17.48 33.7802 17.48C32.1013 17.48 30.7402 18.841 30.7402 20.52C30.7402 22.1989 32.1013 23.56 33.7802 23.56Z" fill="#36BEF9"/>
<path d="M18.7897 7.00007C18.7897 7.00007 31.1697 6.85007 33.1297 17.5701C35.0897 28.2901 24.6197 28.4501 21.6097 28.6601C20.2397 28.7501 17.3197 28.7601 14.7497 28.7101C8.99968 28.6101 4.99968 27.5101 3.62968 22.2101C3.46907 21.5912 3.3686 20.9583 3.32968 20.3201C2.99968 14.5101 6.88968 6.67007 18.7897 7.00007Z" fill="#36BEF9"/>
<path d="M9.80982 23.2901L27.8098 23.5701C28.2576 23.5767 28.7024 23.495 29.1186 23.3298C29.5349 23.1645 29.9145 22.9188 30.2358 22.6068C30.5571 22.2948 30.8138 21.9225 30.9912 21.5113C31.1686 21.1001 31.2633 20.6579 31.2698 20.2101C31.2778 19.7614 31.1971 19.3156 31.0324 18.8982C30.8677 18.4808 30.6223 18.1 30.3101 17.7776C29.998 17.4553 29.6253 17.1977 29.2134 17.0196C28.8015 16.8416 28.3585 16.7466 27.9098 16.7401L9.90982 16.4601C9.00446 16.4467 8.13074 16.7929 7.48026 17.4228C6.82977 18.0526 6.45561 18.9148 6.43982 19.8201C6.43321 20.2692 6.51514 20.7153 6.68092 21.1327C6.84671 21.5502 7.09311 21.9309 7.40605 22.2531C7.719 22.5754 8.09235 22.8328 8.50479 23.0107C8.91724 23.1886 9.36069 23.2836 9.80982 23.2901Z" fill="#FD9636"/>
<path d="M24.0593 19.84C24.1355 20.1054 24.3087 20.3325 24.5446 20.476C24.7804 20.6196 25.0616 20.6693 25.3324 20.6151C25.6031 20.561 25.8436 20.407 26.006 20.1837C26.1685 19.9605 26.2411 19.6843 26.2093 19.41C26.1818 19.2695 26.1269 19.1357 26.0476 19.0165C25.9684 18.8972 25.8664 18.7947 25.7475 18.7148C25.6287 18.6349 25.4952 18.5793 25.3548 18.551C25.2144 18.5227 25.0698 18.5224 24.9293 18.55C24.7875 18.5776 24.6525 18.6328 24.532 18.7125C24.4115 18.7923 24.3079 18.895 24.2271 19.0148C24.1463 19.1346 24.0899 19.2691 24.0611 19.4107C24.0323 19.5523 24.0317 19.6982 24.0593 19.84Z" fill="#425A8B"/>
<path d="M11.5008 19.6301C11.541 19.8447 11.6442 20.0426 11.7972 20.1984C11.9502 20.3542 12.1461 20.4609 12.36 20.505C12.5739 20.5491 12.796 20.5285 12.9982 20.4459C13.2003 20.3633 13.3733 20.2224 13.4951 20.0411C13.6168 19.8598 13.6819 19.6464 13.682 19.4281C13.6821 19.2097 13.6172 18.9962 13.4955 18.8149C13.3739 18.6335 13.201 18.4925 12.9989 18.4097C12.7969 18.3269 12.5747 18.3062 12.3608 18.3501C12.2196 18.3764 12.0851 18.4306 11.9652 18.5095C11.8452 18.5883 11.7421 18.6904 11.6621 18.8096C11.582 18.9287 11.5265 19.0627 11.4988 19.2036C11.4711 19.3445 11.4718 19.4895 11.5008 19.6301Z" fill="#425A8B"/>
<path d="M21.0489 19.5724C21.0489 19.5724 21.1192 19.6611 21.1282 19.8434C21.1394 20.1009 21.089 20.3573 20.9812 20.5914C20.8271 20.9553 20.5823 21.2735 20.2701 21.5157C19.8819 21.8122 19.407 21.9729 18.9185 21.9733C18.4289 21.9536 17.9605 21.768 17.5902 21.4469C17.2914 21.1985 17.0616 20.8772 16.9232 20.514C16.8271 20.2769 16.7878 20.0207 16.8085 19.7658C16.8303 19.5771 16.8407 19.4877 16.9003 19.4946C16.9599 19.5015 16.9559 19.8836 17.2308 20.3785C17.386 20.6636 17.6011 20.9117 17.8613 21.1059C18.1655 21.3446 18.5366 21.4826 18.9229 21.5006C19.2968 21.4868 19.6593 21.3683 19.9692 21.1587C20.2425 20.9769 20.4704 20.7346 20.6351 20.4507C20.9742 19.9564 20.9782 19.5743 21.0489 19.5724Z" fill="#425A8B"/>
<path d="M33.0991 17.1799C33.141 17.2631 33.1745 17.3502 33.1991 17.4399C33.1991 17.5299 33.2591 17.6399 33.2891 17.7599C33.334 17.901 33.3707 18.0446 33.3991 18.1899C33.471 18.5634 33.5211 18.9407 33.5491 19.3199C33.5839 19.7859 33.5839 20.2539 33.5491 20.7199C33.5033 21.1846 33.4265 21.6456 33.3191 22.0999C33.2393 22.4706 33.1323 22.8349 32.9991 23.1899C32.9491 23.3399 32.8791 23.4699 32.8291 23.5899L32.6791 23.8899L32.5391 24.1299C32.5632 24.0385 32.6003 23.951 32.6491 23.8699C32.6491 23.7899 32.7291 23.6899 32.7791 23.5699C32.8291 23.4499 32.8891 23.3199 32.9391 23.1599C33.069 22.8063 33.1792 22.4458 33.2691 22.0799C33.3757 21.6288 33.4525 21.1712 33.4991 20.7099C33.5286 20.2504 33.5286 19.7895 33.4991 19.3299C33.474 18.9509 33.4273 18.5736 33.3591 18.1999C33.337 18.0551 33.3069 17.9115 33.2691 17.7699C33.2507 17.6614 33.224 17.5544 33.1891 17.4499C33.1191 17.2799 33.0991 17.1799 33.0991 17.1799Z" fill="#FFB800"/>
<path d="M3.77083 17.25C3.73346 17.3339 3.70335 17.4209 3.68083 17.51C3.64178 17.6148 3.6084 17.7216 3.58083 17.83C3.58083 17.95 3.51083 18.09 3.48083 18.26C3.40439 18.633 3.35095 19.0104 3.32083 19.39C3.28629 19.856 3.28629 20.324 3.32083 20.79C3.36247 21.2552 3.43936 21.7165 3.55083 22.17C3.64666 22.5364 3.76352 22.897 3.90083 23.25C3.96083 23.41 4.03083 23.54 4.08083 23.66C4.12463 23.7597 4.17473 23.8566 4.23083 23.95C4.26792 24.0383 4.31488 24.1222 4.37083 24.2C4.34873 24.1079 4.31157 24.02 4.26083 23.94L4.13083 23.63C4.08083 23.51 4.02083 23.38 3.97083 23.23C3.83719 22.8767 3.72367 22.5161 3.63083 22.15C3.53255 21.6977 3.4591 21.2403 3.41083 20.78C3.38123 20.3171 3.38123 19.8529 3.41083 19.39C3.43637 19.0143 3.48311 18.6404 3.55083 18.27C3.55083 18.11 3.61083 17.97 3.63083 17.84L3.71083 17.52C3.74447 17.4336 3.7647 17.3425 3.77083 17.25Z" fill="#FFB800"/>
</g>
<path d="M53.9512 28.2624V31H44.8842V28.2624H53.9512ZM46.0307 13.9658V31H42.5209V13.9658H46.0307ZM52.7695 20.9035V23.5709H44.8842V20.9035H52.7695ZM53.9395 13.9658V16.7151H44.8842V13.9658H53.9395ZM60.7836 28.6016C61.197 28.6016 61.5635 28.5236 61.8833 28.3676C62.2031 28.2039 62.4527 27.9777 62.6321 27.6891C62.8193 27.3927 62.9168 27.0456 62.9246 26.6478H66.0951C66.0873 27.537 65.8494 28.3287 65.3814 29.0228C64.9134 29.7092 64.2856 30.2512 63.4978 30.649C62.7101 31.039 61.8287 31.234 60.8538 31.234C59.871 31.234 59.0131 31.0702 58.2799 30.7426C57.5546 30.415 56.9501 29.9627 56.4665 29.3855C55.9829 28.8005 55.6203 28.122 55.3785 27.3498C55.1367 26.5699 55.0158 25.7353 55.0158 24.8461V24.5069C55.0158 23.6099 55.1367 22.7754 55.3785 22.0032C55.6203 21.2233 55.9829 20.5447 56.4665 19.9675C56.9501 19.3826 57.5546 18.9263 58.2799 18.5987C59.0053 18.2711 59.8554 18.1073 60.8304 18.1073C61.8677 18.1073 62.7764 18.3062 63.5563 18.704C64.3441 19.1018 64.9602 19.6711 65.4048 20.4121C65.8572 21.1453 66.0873 22.0149 66.0951 23.0211H62.9246C62.9168 22.5999 62.8271 22.2177 62.6555 21.8745C62.4917 21.5313 62.2499 21.2584 61.9301 21.0556C61.6181 20.845 61.2321 20.7397 60.7719 20.7397C60.2805 20.7397 59.8788 20.845 59.5668 21.0556C59.2549 21.2584 59.0131 21.5391 58.8415 21.8979C58.6699 22.2489 58.549 22.6506 58.4788 23.1029C58.4164 23.5475 58.3852 24.0155 58.3852 24.5069V24.8461C58.3852 25.3375 58.4164 25.8094 58.4788 26.2618C58.5412 26.7141 58.6582 27.1158 58.8298 27.4668C59.0092 27.8178 59.2549 28.0947 59.5668 28.2975C59.8788 28.5002 60.2844 28.6016 60.7836 28.6016ZM67.5107 24.7994V24.5537C67.5107 23.6255 67.6433 22.7715 67.9085 21.9915C68.1737 21.2038 68.5597 20.5213 69.0667 19.9441C69.5737 19.367 70.1976 18.9185 70.9386 18.5987C71.6796 18.2711 72.5297 18.1073 73.4891 18.1073C74.4484 18.1073 75.3025 18.2711 76.0512 18.5987C76.8 18.9185 77.4278 19.367 77.9348 19.9441C78.4496 20.5213 78.8395 21.2038 79.1047 21.9915C79.3699 22.7715 79.5025 23.6255 79.5025 24.5537V24.7994C79.5025 25.7197 79.3699 26.5738 79.1047 27.3615C78.8395 28.1415 78.4496 28.8239 77.9348 29.4089C77.4278 29.9861 76.8039 30.4345 76.0629 30.7543C75.3219 31.0741 74.4718 31.234 73.5125 31.234C72.5531 31.234 71.6991 31.0741 70.9503 30.7543C70.2093 30.4345 69.5815 29.9861 69.0667 29.4089C68.5597 28.8239 68.1737 28.1415 67.9085 27.3615C67.6433 26.5738 67.5107 25.7197 67.5107 24.7994ZM70.8801 24.5537V24.7994C70.8801 25.3297 70.9269 25.825 71.0205 26.2852C71.1141 26.7453 71.2623 27.1509 71.4651 27.5019C71.6757 27.8451 71.9486 28.1142 72.284 28.3092C72.6194 28.5041 73.0289 28.6016 73.5125 28.6016C73.9804 28.6016 74.3821 28.5041 74.7175 28.3092C75.0529 28.1142 75.3219 27.8451 75.5247 27.5019C75.7275 27.1509 75.8757 26.7453 75.9693 26.2852C76.0707 25.825 76.1214 25.3297 76.1214 24.7994V24.5537C76.1214 24.0389 76.0707 23.5553 75.9693 23.1029C75.8757 22.6428 75.7236 22.2372 75.513 21.8862C75.3103 21.5274 75.0412 21.2467 74.7058 21.0439C74.3704 20.8411 73.9648 20.7397 73.4891 20.7397C73.0133 20.7397 72.6077 20.8411 72.2723 21.0439C71.9447 21.2467 71.6757 21.5274 71.4651 21.8862C71.2623 22.2372 71.1141 22.6428 71.0205 23.1029C70.9269 23.5553 70.8801 24.0389 70.8801 24.5537ZM84.9427 20.962V31H81.5616V18.3413H84.7321L84.9427 20.962ZM84.4747 24.2261H83.5388C83.5388 23.3447 83.6441 22.5336 83.8547 21.7926C84.0731 21.0439 84.3889 20.3965 84.8023 19.8505C85.2235 19.2968 85.7422 18.8678 86.3583 18.5636C86.9745 18.2594 87.6881 18.1073 88.4993 18.1073C89.0609 18.1073 89.5756 18.1931 90.0436 18.3647C90.5116 18.5285 90.9133 18.7898 91.2486 19.1486C91.5918 19.4996 91.857 19.9597 92.0442 20.5291C92.2314 21.0907 92.325 21.7653 92.325 22.5531V31H88.9556V22.9275C88.9556 22.3503 88.8776 21.9057 88.7216 21.5937C88.5656 21.2818 88.3433 21.0634 88.0547 20.9386C87.7739 20.8138 87.4347 20.7514 87.0369 20.7514C86.6001 20.7514 86.2179 20.8411 85.8904 21.0205C85.5706 21.1999 85.3054 21.4494 85.0948 21.7692C84.8842 22.0812 84.7282 22.4478 84.6268 22.869C84.5254 23.2901 84.4747 23.7425 84.4747 24.2261ZM92.0091 23.84L90.8041 23.9921C90.8041 23.1653 90.9055 22.3971 91.1083 21.6873C91.3188 20.9776 91.6269 20.3536 92.0325 19.8154C92.4459 19.2773 92.9567 18.86 93.5651 18.5636C94.1735 18.2594 94.8754 18.1073 95.671 18.1073C96.2794 18.1073 96.8331 18.197 97.3323 18.3764C97.8315 18.548 98.2565 18.8249 98.6075 19.2071C98.9663 19.5814 99.2393 20.0728 99.4265 20.6812C99.6215 21.2896 99.719 22.0344 99.719 22.9158V31H96.3379V22.9158C96.3379 22.3308 96.2599 21.8862 96.1039 21.582C95.9557 21.2701 95.7373 21.0556 95.4487 20.9386C95.1679 20.8138 94.8325 20.7514 94.4426 20.7514C94.037 20.7514 93.6821 20.8333 93.3779 20.9971C93.0737 21.1531 92.8203 21.3714 92.6175 21.6522C92.4147 21.933 92.2626 22.2606 92.1612 22.635C92.0598 23.0016 92.0091 23.4032 92.0091 23.84Z" fill="#425A8B"/>
<defs>
<clipPath id="clip0_4031_22910">
<rect width="37" height="31" fill="white"/>
</clipPath>
</defs>
</svg>
