<svg width="18" height="18" viewBox="0 0 18 18" fill="none" xmlns="http://www.w3.org/2000/svg">
<g opacity="0.6" clip-path="url(#clip0_4031_22937)">
<path d="M18.0006 16.9396L13.3041 12.2431C14.524 10.751 15.1239 8.84715 14.9795 6.92525C14.835 5.00335 13.9575 3.21048 12.5283 1.91747C11.099 0.624463 9.22751 -0.0697502 7.3008 -0.0215763C5.37409 0.0265975 3.5396 0.813473 2.17678 2.17629C0.813961 3.53911 0.0270858 5.3736 -0.0210881 7.30031C-0.0692619 9.22702 0.624952 11.0985 1.91796 12.5278C3.21097 13.957 5.00384 14.8346 6.92574 14.979C8.84764 15.1234 10.7515 14.5235 12.2436 13.3036L16.9401 18.0001L18.0006 16.9396ZM7.50057 13.5001C6.31388 13.5001 5.15384 13.1482 4.16715 12.4889C3.18045 11.8296 2.41142 10.8925 1.95729 9.79618C1.50317 8.69982 1.38435 7.49342 1.61586 6.32954C1.84737 5.16565 2.41881 4.09655 3.25793 3.25744C4.09704 2.41832 5.16614 1.84688 6.33003 1.61537C7.49391 1.38386 8.70031 1.50268 9.79667 1.9568C10.893 2.41093 11.8301 3.17996 12.4894 4.16666C13.1487 5.15335 13.5006 6.31339 13.5006 7.50008C13.4988 9.09083 12.8661 10.6159 11.7412 11.7407C10.6164 12.8656 9.09132 13.4983 7.50057 13.5001Z" fill="#425A8B"/>
</g>
<defs>
<clipPath id="clip0_4031_22937">
<rect width="18" height="18" fill="white"/>
</clipPath>
</defs>
</svg>
