<svg width="32" height="35" viewBox="0 0 32 35" fill="none" xmlns="http://www.w3.org/2000/svg">
<path d="M22 19.6901C22 20.8801 21.81 21.9801 21.48 23.0001H2.52C2.19 21.9801 2 20.8801 2 19.6901C2 16.6001 4.49 14.1001 7.56 14.1001C9.37 14.1001 10.99 14.9801 12 16.3301C13.01 14.9801 14.63 14.1001 16.44 14.1001C19.51 14.1001 22 16.6001 22 19.6901Z" fill="#425A8B"/>
<path opacity="0.4" d="M21.4795 23C19.8995 28 15.0295 30.99 12.6195 31.81C12.2795 31.93 11.7195 31.93 11.3795 31.81C8.96953 30.99 4.09953 28 2.51953 23H21.4795Z" fill="#425A8B"/>
<rect x="12" width="20" height="20" rx="10" fill="#FD9636"/>
<path d="M22.256 14.7981C21.672 14.7981 21.168 14.6941 20.744 14.4861C20.32 14.2781 19.988 13.9981 19.748 13.6461C19.508 13.2861 19.36 12.8781 19.304 12.4221H20.48C20.56 12.8141 20.752 13.1381 21.056 13.3941C21.368 13.6501 21.772 13.7781 22.268 13.7781C22.628 13.7781 22.936 13.6941 23.192 13.5261C23.456 13.3501 23.656 13.1141 23.792 12.8181C23.936 12.5221 24.008 12.1941 24.008 11.8341C24.008 11.4581 23.936 11.1301 23.792 10.8501C23.656 10.5621 23.46 10.3421 23.204 10.1901C22.948 10.0301 22.648 9.95005 22.304 9.95005C21.888 9.95005 21.532 10.0381 21.236 10.2141C20.948 10.3901 20.732 10.6101 20.588 10.8741H19.424L20.096 6.25405H24.644V7.29805H21.008L20.588 9.67405C20.78 9.45805 21.036 9.28605 21.356 9.15805C21.684 9.02205 22.056 8.95405 22.472 8.95405C22.896 8.95405 23.272 9.03005 23.6 9.18205C23.936 9.32605 24.22 9.53005 24.452 9.79405C24.684 10.0581 24.86 10.3621 24.98 10.7061C25.108 11.0501 25.172 11.4181 25.172 11.8101C25.172 12.2261 25.104 12.6181 24.968 12.9861C24.832 13.3461 24.636 13.6621 24.38 13.9341C24.132 14.2061 23.828 14.4181 23.468 14.5701C23.108 14.7221 22.704 14.7981 22.256 14.7981Z" fill="white"/>
</svg>
